<svg id="Layer_1" data-name="Layer 1" xmlns="http://www.w3.org/2000/svg" viewBox="0 0 32 128"><defs><style>.cls-1,.cls-4{fill:#fff;}.cls-2{fill:#e6e7e8;}.cls-2,.cls-4,.cls-5{stroke:#fff;}.cls-2,.cls-3,.cls-4,.cls-5{stroke-linecap:round;stroke-miterlimit:10;}.cls-3,.cls-5{fill:none;}.cls-3{stroke:#000;}.cls-4{stroke-width:0.25px;}.cls-5{stroke-width:0.75px;}</style></defs><title>Artboard 1</title><rect x="0.5" y="0.5" width="31" height="127"/><path d="M31,1V127H1V1H31m1-1H0V128H32V0Z"/><rect class="cls-1" x="0.5" y="0.5" width="2" height="127"/><path class="cls-1" d="M2,1V127H1V1H2M3,0H0V128H3V0Z"/><rect class="cls-1" x="29.5" y="0.5" width="2" height="127"/><path class="cls-1" d="M31,1V127H30V1h1m1-1H29V128h3V0Z"/><polygon class="cls-2" points="11.91 41.87 9.59 41.87 8.44 43.88 9.59 45.88 11.91 45.88 13.06 43.88 11.91 41.87"/><polygon class="cls-2" points="22.46 17.79 21.32 16.47 19.61 16.8 19.04 18.45 20.18 19.76 21.89 19.43 22.46 17.79"/><rect class="cls-3" x="0.5" y="0.5" width="31" height="127"/><polygon class="cls-2" points="9.48 9.36 7.45 9.36 6.44 11.12 7.45 12.88 9.48 12.88 10.5 11.12 9.48 9.36"/><rect class="cls-4" x="8.85" y="115" width="2.31" height="10"/><rect class="cls-4" x="11.92" y="116.18" width="0.77" height="3.53"/><rect class="cls-4" x="11.92" y="122.06" width="0.77" height="1.76"/><rect class="cls-4" x="12.69" y="122.65" width="0.77" height="1.76"/><rect class="cls-4" x="13.46" y="123.24" width="0.77" height="1.76"/><rect class="cls-4" x="14.23" y="119.71" width="0.77" height="5.29"/><rect class="cls-4" x="11.15" y="121.47" width="0.77" height="1.76"/><rect class="cls-4" x="11.15" y="118.53" width="0.77" height="1.76"/><rect class="cls-4" x="7.31" y="116.18" width="0.77" height="3.53" transform="translate(15.38 235.88) rotate(-180)"/><rect class="cls-4" x="7.31" y="122.06" width="0.77" height="1.76" transform="translate(15.38 245.88) rotate(-180)"/><rect class="cls-4" x="6.54" y="122.65" width="0.77" height="1.76" transform="translate(13.85 247.06) rotate(-180)"/><rect class="cls-4" x="5.77" y="123.24" width="0.77" height="1.76" transform="translate(12.31 248.24) rotate(-180)"/><rect class="cls-4" x="5" y="119.71" width="0.77" height="5.29" transform="translate(10.77 244.71) rotate(-180)"/><rect class="cls-4" x="8.08" y="121.47" width="0.77" height="1.76" transform="translate(16.92 244.71) rotate(-180)"/><rect class="cls-4" x="8.08" y="118.53" width="0.77" height="1.76" transform="translate(16.92 238.82) rotate(-180)"/><line class="cls-5" x1="10" y1="105" x2="10" y2="110"/></svg>