<svg id="Layer_1" data-name="Layer 1" xmlns="http://www.w3.org/2000/svg" viewBox="0 0 32 128"><defs><style>.cls-1,.cls-4{fill:#fff;}.cls-2{fill:#e6e7e8;}.cls-2,.cls-4,.cls-5{stroke:#fff;}.cls-2,.cls-3,.cls-4,.cls-5{stroke-linecap:round;stroke-miterlimit:10;}.cls-3,.cls-5{fill:none;}.cls-3{stroke:#000;}.cls-4{stroke-width:0.25px;}.cls-5{stroke-width:0.75px;}</style></defs><title>UnoShooter-Concept</title><rect x="0.5" y="0.5" width="31" height="127"/><path d="M31,1V127H1V1H31m1-1H0V128H32Z"/><rect class="cls-1" x="0.5" y="0.5" width="2" height="127"/><path class="cls-1" d="M2,1V127H1V1H2M3,0H0V128H3Z"/><rect class="cls-1" x="29.5" y="0.5" width="2" height="127"/><path class="cls-1" d="M31,1V127H30V1h1m1-1H29V128h3Z"/><polygon class="cls-2" points="11.91 41.87 9.59 41.87 8.44 43.88 9.59 45.88 11.91 45.88 13.06 43.88 11.91 41.87"/><polygon class="cls-2" points="22.46 17.79 21.32 16.47 19.61 16.8 19.04 18.45 20.18 19.76 21.89 19.43 22.46 17.79"/><rect class="cls-3" x="0.5" y="0.5" width="31" height="127"/><polygon class="cls-2" points="9.48 9.36 7.45 9.36 6.44 11.12 7.45 12.88 9.48 12.88 10.5 11.12 9.48 9.36"/><rect class="cls-4" x="9.6" y="65.2" width="2.31" height="10"/><rect class="cls-4" x="12.67" y="66.38" width="0.77" height="3.53"/><rect class="cls-4" x="12.67" y="72.26" width="0.77" height="1.76"/><rect class="cls-4" x="13.44" y="72.85" width="0.77" height="1.76"/><rect class="cls-4" x="14.21" y="73.44" width="0.77" height="1.76"/><rect class="cls-4" x="14.98" y="69.91" width="0.77" height="5.29"/><rect class="cls-4" x="11.9" y="71.67" width="0.77" height="1.76"/><rect class="cls-4" x="11.9" y="68.73" width="0.77" height="1.76"/><rect class="cls-4" x="8.05" y="66.37" width="0.77" height="3.53"/><rect class="cls-4" x="8.05" y="72.26" width="0.77" height="1.76"/><rect class="cls-4" x="7.29" y="72.85" width="0.77" height="1.76"/><rect class="cls-4" x="6.52" y="73.44" width="0.77" height="1.76"/><rect class="cls-4" x="5.75" y="69.91" width="0.77" height="5.29"/><rect class="cls-4" x="8.82" y="71.68" width="0.77" height="1.76"/><rect class="cls-4" x="8.82" y="68.73" width="0.77" height="1.76"/><line class="cls-5" x1="10.75" y1="55.2" x2="10.75" y2="60.2"/></svg>