<svg id="Layer_1" data-name="Layer 1" xmlns="http://www.w3.org/2000/svg" viewBox="0 0 256 256"><defs><style>.cls-1,.cls-2{stroke:#fff;stroke-linecap:round;stroke-miterlimit:10;stroke-width:0.25px;}.cls-2{fill:#fff;}</style></defs><title>UnoShooter-Favicon</title><rect class="cls-1" x="-0.13" y="0.34" width="256" height="256"/><rect class="cls-2" x="113.47" y="38.03" width="41.68" height="180.62"/><rect class="cls-2" x="169.05" y="59.28" width="13.89" height="63.75"/><rect class="cls-2" x="169.05" y="165.53" width="13.89" height="31.87"/><rect class="cls-2" x="182.94" y="176.16" width="13.89" height="31.87"/><rect class="cls-2" x="196.84" y="186.78" width="13.89" height="31.87"/><rect class="cls-2" x="210.73" y="123.03" width="13.89" height="95.62"/><rect class="cls-2" x="155.15" y="154.91" width="13.89" height="31.87"/><rect class="cls-2" x="155.15" y="101.78" width="13.89" height="31.87"/><rect class="cls-2" x="85.68" y="59.28" width="13.89" height="63.75" transform="translate(185.26 182.31) rotate(-180)"/><rect class="cls-2" x="85.68" y="165.53" width="13.89" height="31.87" transform="translate(185.26 362.94) rotate(-180)"/><rect class="cls-2" x="71.79" y="176.16" width="13.89" height="31.87" transform="translate(157.47 384.19) rotate(-180)"/><rect class="cls-2" x="57.89" y="186.78" width="13.89" height="31.87" transform="translate(129.68 405.44) rotate(-180)"/><rect class="cls-2" x="44" y="123.03" width="13.89" height="95.62" transform="translate(101.89 341.69) rotate(-180)"/><rect class="cls-2" x="99.58" y="154.91" width="13.89" height="31.87" transform="translate(213.05 341.69) rotate(-180)"/><rect class="cls-2" x="99.58" y="101.78" width="13.89" height="31.87" transform="translate(213.05 235.44) rotate(-180)"/></svg>
